<mxfile host="app.diagrams.net" modified="2020-12-23T12:06:50.300Z" agent="5.0 (Macintosh; Intel Mac OS X 10_15_7) AppleWebKit/605.1.15 (KHTML, like Gecko) Version/14.0 Safari/605.1.15" etag="i6Jkr74vUSbO6tt4VWwL" version="14.1.1" type="github">
  <diagram id="UJtLfIB6DYda1RLiv4Zx" name="Page-1">
    <mxGraphModel dx="983" dy="565" grid="1" gridSize="10" guides="1" tooltips="1" connect="1" arrows="1" fold="1" page="1" pageScale="1" pageWidth="1169" pageHeight="827" background="#F4F1DE" math="0" shadow="0">
      <root>
        <mxCell id="0" />
        <mxCell id="1" parent="0" />
        <mxCell id="1k8U-JNSFX3r7dmcErmA-2" value="" style="endArrow=none;html=1;strokeWidth=3;fontSize=10;comic=1;labelBackgroundColor=#F4F1DE;fontColor=#393C56;strokeColor=#1A1A1A;" edge="1" parent="1">
          <mxGeometry width="50" height="50" relative="1" as="geometry">
            <mxPoint x="160" y="360" as="sourcePoint" />
            <mxPoint x="730" y="360" as="targetPoint" />
          </mxGeometry>
        </mxCell>
        <mxCell id="1k8U-JNSFX3r7dmcErmA-3" value="&lt;font style=&quot;font-size: 15px&quot;&gt;Redis&lt;/font&gt;" style="text;html=1;align=center;verticalAlign=middle;resizable=0;points=[];autosize=1;fontSize=10;comic=1;fontColor=#393C56;" vertex="1" parent="1">
          <mxGeometry x="100" y="350" width="50" height="20" as="geometry" />
        </mxCell>
        <mxCell id="1k8U-JNSFX3r7dmcErmA-4" value="" style="endArrow=classic;html=1;strokeWidth=3;fontSize=10;comic=1;labelBackgroundColor=#F4F1DE;fontColor=#393C56;strokeColor=#F19C99;" edge="1" parent="1">
          <mxGeometry width="50" height="50" relative="1" as="geometry">
            <mxPoint x="160" y="440" as="sourcePoint" />
            <mxPoint x="730" y="440" as="targetPoint" />
          </mxGeometry>
        </mxCell>
        <mxCell id="1k8U-JNSFX3r7dmcErmA-5" value="" style="endArrow=classic;html=1;strokeWidth=3;fontSize=10;comic=1;labelBackgroundColor=#F4F1DE;fontColor=#393C56;strokeColor=#67AB9F;" edge="1" parent="1">
          <mxGeometry width="50" height="50" relative="1" as="geometry">
            <mxPoint x="160" y="520" as="sourcePoint" />
            <mxPoint x="730" y="520" as="targetPoint" />
          </mxGeometry>
        </mxCell>
        <mxCell id="1k8U-JNSFX3r7dmcErmA-6" value="&lt;span style=&quot;font-size: 14px&quot;&gt;客户端A&lt;/span&gt;" style="text;html=1;align=center;verticalAlign=middle;resizable=0;points=[];autosize=1;fontSize=10;comic=1;fontColor=#393C56;" vertex="1" parent="1">
          <mxGeometry x="90" y="430" width="70" height="20" as="geometry" />
        </mxCell>
        <mxCell id="1k8U-JNSFX3r7dmcErmA-7" value="&lt;span style=&quot;font-size: 14px&quot;&gt;客户端B&lt;/span&gt;" style="text;html=1;align=center;verticalAlign=middle;resizable=0;points=[];autosize=1;fontSize=10;comic=1;fontColor=#393C56;" vertex="1" parent="1">
          <mxGeometry x="90" y="510" width="70" height="20" as="geometry" />
        </mxCell>
        <mxCell id="1k8U-JNSFX3r7dmcErmA-8" value="" style="endArrow=none;dashed=1;html=1;dashPattern=1 3;strokeWidth=1;fontSize=10;comic=1;labelBackgroundColor=#F4F1DE;strokeColor=#E07A5F;fontColor=#393C56;" edge="1" parent="1">
          <mxGeometry width="50" height="50" relative="1" as="geometry">
            <mxPoint x="160" y="560" as="sourcePoint" />
            <mxPoint x="160" y="290" as="targetPoint" />
          </mxGeometry>
        </mxCell>
        <mxCell id="1k8U-JNSFX3r7dmcErmA-9" value="" style="endArrow=none;dashed=1;html=1;dashPattern=1 3;strokeWidth=1;fontSize=10;comic=1;labelBackgroundColor=#F4F1DE;strokeColor=#E07A5F;fontColor=#393C56;" edge="1" parent="1">
          <mxGeometry width="50" height="50" relative="1" as="geometry">
            <mxPoint x="240" y="560" as="sourcePoint" />
            <mxPoint x="240" y="290" as="targetPoint" />
          </mxGeometry>
        </mxCell>
        <mxCell id="1k8U-JNSFX3r7dmcErmA-10" value="" style="endArrow=none;dashed=1;html=1;dashPattern=1 3;strokeWidth=1;fontSize=10;comic=1;labelBackgroundColor=#F4F1DE;strokeColor=#E07A5F;fontColor=#393C56;" edge="1" parent="1">
          <mxGeometry width="50" height="50" relative="1" as="geometry">
            <mxPoint x="320" y="560" as="sourcePoint" />
            <mxPoint x="320" y="290" as="targetPoint" />
          </mxGeometry>
        </mxCell>
        <mxCell id="1k8U-JNSFX3r7dmcErmA-11" value="" style="endArrow=none;dashed=1;html=1;dashPattern=1 3;strokeWidth=1;fontSize=10;comic=1;labelBackgroundColor=#F4F1DE;strokeColor=#E07A5F;fontColor=#393C56;" edge="1" parent="1">
          <mxGeometry width="50" height="50" relative="1" as="geometry">
            <mxPoint x="560" y="560" as="sourcePoint" />
            <mxPoint x="560" y="290" as="targetPoint" />
          </mxGeometry>
        </mxCell>
        <mxCell id="1k8U-JNSFX3r7dmcErmA-12" value="" style="endArrow=none;dashed=1;html=1;dashPattern=1 3;strokeWidth=1;fontSize=10;comic=1;labelBackgroundColor=#F4F1DE;strokeColor=#E07A5F;fontColor=#393C56;" edge="1" parent="1">
          <mxGeometry width="50" height="50" relative="1" as="geometry">
            <mxPoint x="400" y="560" as="sourcePoint" />
            <mxPoint x="400" y="290" as="targetPoint" />
          </mxGeometry>
        </mxCell>
        <mxCell id="1k8U-JNSFX3r7dmcErmA-13" value="" style="endArrow=none;dashed=1;html=1;dashPattern=1 3;strokeWidth=1;fontSize=10;comic=1;labelBackgroundColor=#F4F1DE;strokeColor=#E07A5F;fontColor=#393C56;" edge="1" parent="1">
          <mxGeometry width="50" height="50" relative="1" as="geometry">
            <mxPoint x="480" y="560" as="sourcePoint" />
            <mxPoint x="480" y="290" as="targetPoint" />
          </mxGeometry>
        </mxCell>
        <mxCell id="1k8U-JNSFX3r7dmcErmA-14" value="" style="endArrow=none;dashed=1;html=1;dashPattern=1 3;strokeWidth=1;fontSize=10;comic=1;labelBackgroundColor=#F4F1DE;strokeColor=#E07A5F;fontColor=#393C56;" edge="1" parent="1">
          <mxGeometry width="50" height="50" relative="1" as="geometry">
            <mxPoint x="640" y="560" as="sourcePoint" />
            <mxPoint x="640" y="290" as="targetPoint" />
          </mxGeometry>
        </mxCell>
        <mxCell id="1k8U-JNSFX3r7dmcErmA-15" value="&lt;font style=&quot;font-size: 13px&quot;&gt;时间&lt;/font&gt;" style="text;html=1;align=center;verticalAlign=middle;resizable=0;points=[];autosize=1;fontSize=10;comic=1;fontColor=#393C56;" vertex="1" parent="1">
          <mxGeometry x="140" y="260" width="40" height="20" as="geometry" />
        </mxCell>
        <mxCell id="1k8U-JNSFX3r7dmcErmA-16" value="&lt;font size=&quot;2&quot;&gt;T1&lt;/font&gt;" style="text;html=1;align=center;verticalAlign=middle;resizable=0;points=[];autosize=1;fontSize=10;comic=1;fontColor=#393C56;" vertex="1" parent="1">
          <mxGeometry x="225" y="260" width="30" height="20" as="geometry" />
        </mxCell>
        <mxCell id="1k8U-JNSFX3r7dmcErmA-17" value="&lt;font size=&quot;2&quot;&gt;T2&lt;/font&gt;" style="text;html=1;align=center;verticalAlign=middle;resizable=0;points=[];autosize=1;fontSize=10;comic=1;fontColor=#393C56;" vertex="1" parent="1">
          <mxGeometry x="310" y="260" width="30" height="20" as="geometry" />
        </mxCell>
        <mxCell id="1k8U-JNSFX3r7dmcErmA-18" value="&lt;font size=&quot;2&quot;&gt;T3&lt;/font&gt;" style="text;html=1;align=center;verticalAlign=middle;resizable=0;points=[];autosize=1;fontSize=10;comic=1;fontColor=#393C56;" vertex="1" parent="1">
          <mxGeometry x="390" y="260" width="30" height="20" as="geometry" />
        </mxCell>
        <mxCell id="1k8U-JNSFX3r7dmcErmA-19" value="&lt;font size=&quot;2&quot;&gt;T4&lt;/font&gt;" style="text;html=1;align=center;verticalAlign=middle;resizable=0;points=[];autosize=1;fontSize=10;comic=1;fontColor=#393C56;" vertex="1" parent="1">
          <mxGeometry x="470" y="260" width="30" height="20" as="geometry" />
        </mxCell>
        <mxCell id="1k8U-JNSFX3r7dmcErmA-20" value="&lt;font size=&quot;2&quot;&gt;T5&lt;/font&gt;" style="text;html=1;align=center;verticalAlign=middle;resizable=0;points=[];autosize=1;fontSize=10;comic=1;fontColor=#393C56;" vertex="1" parent="1">
          <mxGeometry x="550" y="260" width="30" height="20" as="geometry" />
        </mxCell>
        <mxCell id="1k8U-JNSFX3r7dmcErmA-21" value="&lt;font size=&quot;2&quot;&gt;T6&lt;/font&gt;" style="text;html=1;align=center;verticalAlign=middle;resizable=0;points=[];autosize=1;fontSize=10;comic=1;fontColor=#393C56;" vertex="1" parent="1">
          <mxGeometry x="630" y="260" width="30" height="20" as="geometry" />
        </mxCell>
        <mxCell id="1k8U-JNSFX3r7dmcErmA-22" value="" style="endArrow=classicThin;html=1;strokeWidth=2;fontSize=10;endFill=0;comic=1;labelBackgroundColor=#F4F1DE;fontColor=#393C56;strokeColor=#67AB9F;" edge="1" parent="1">
          <mxGeometry width="50" height="50" relative="1" as="geometry">
            <mxPoint x="450" y="520" as="sourcePoint" />
            <mxPoint x="470" y="360" as="targetPoint" />
          </mxGeometry>
        </mxCell>
        <mxCell id="1k8U-JNSFX3r7dmcErmA-23" value="" style="endArrow=classicThin;html=1;strokeWidth=2;fontSize=10;endFill=0;comic=1;labelBackgroundColor=#F4F1DE;fontColor=#393C56;strokeColor=#F19C99;" edge="1" parent="1">
          <mxGeometry width="50" height="50" relative="1" as="geometry">
            <mxPoint x="310" y="438" as="sourcePoint" />
            <mxPoint x="390" y="360" as="targetPoint" />
            <Array as="points">
              <mxPoint x="330" y="418" />
            </Array>
          </mxGeometry>
        </mxCell>
        <mxCell id="1k8U-JNSFX3r7dmcErmA-24" value="" style="endArrow=classicThin;html=1;strokeWidth=2;fontSize=10;endFill=0;comic=1;labelBackgroundColor=#F4F1DE;fontColor=#393C56;strokeColor=#F19C99;" edge="1" parent="1">
          <mxGeometry width="50" height="50" relative="1" as="geometry">
            <mxPoint x="160" y="439" as="sourcePoint" />
            <mxPoint x="240" y="360" as="targetPoint" />
          </mxGeometry>
        </mxCell>
        <mxCell id="1k8U-JNSFX3r7dmcErmA-31" value="&lt;span style=&quot;font-size: 9px&quot;&gt;set lock_order 123uD PX 10000 NX&amp;nbsp;&lt;/span&gt;" style="rounded=1;whiteSpace=wrap;html=1;shadow=0;labelBackgroundColor=none;fontSize=10;align=center;comic=1;fontColor=#393C56;strokeColor=#F19C99;fillColor=#F19C99;" vertex="1" parent="1">
          <mxGeometry x="130" y="387" width="100" height="23" as="geometry" />
        </mxCell>
        <mxCell id="1k8U-JNSFX3r7dmcErmA-34" value="&lt;font style=&quot;font-size: 9px&quot;&gt;lock_order 不存在，加锁成功&lt;/font&gt;" style="shape=callout;whiteSpace=wrap;html=1;perimeter=calloutPerimeter;rounded=1;sketch=0;fontColor=#393C56;position2=0.55;comic=1;noLabel=0;base=20;size=10;position=0.44;arcSize=13;strokeColor=#F19C99;fillColor=#F19C99;" vertex="1" parent="1">
          <mxGeometry x="190" y="320" width="90" height="40" as="geometry" />
        </mxCell>
        <mxCell id="1k8U-JNSFX3r7dmcErmA-41" value="" style="endArrow=none;html=1;strokeWidth=3;fillColor=#F2CC8F;fontColor=#393C56;strokeColor=#F19C99;comic=1;" edge="1" parent="1">
          <mxGeometry width="50" height="50" relative="1" as="geometry">
            <mxPoint x="240" y="360" as="sourcePoint" />
            <mxPoint x="410" y="360" as="targetPoint" />
          </mxGeometry>
        </mxCell>
        <mxCell id="1k8U-JNSFX3r7dmcErmA-42" value="&lt;font style=&quot;font-size: 9px&quot;&gt;10000毫秒到时，&lt;br&gt;自动解锁&lt;/font&gt;" style="shape=callout;whiteSpace=wrap;html=1;perimeter=calloutPerimeter;rounded=1;sketch=0;fontColor=#393C56;position2=0.55;comic=1;noLabel=0;base=20;size=10;position=0.44;arcSize=13;strokeColor=#F19C99;fillColor=#F19C99;" vertex="1" parent="1">
          <mxGeometry x="360" y="320" width="90" height="40" as="geometry" />
        </mxCell>
        <mxCell id="1k8U-JNSFX3r7dmcErmA-44" value="&lt;span style=&quot;font-size: 9px;&quot;&gt;get lock_order&lt;br style=&quot;font-size: 9px;&quot;&gt;&lt;/span&gt;" style="rounded=1;whiteSpace=wrap;html=1;shadow=0;labelBackgroundColor=none;fontSize=9;align=center;comic=1;fontColor=#393C56;strokeColor=#F19C99;fillColor=#F19C99;imageWidth=24;horizontal=1;" vertex="1" parent="1">
          <mxGeometry x="310" y="400" width="70" height="16" as="geometry" />
        </mxCell>
        <mxCell id="1k8U-JNSFX3r7dmcErmA-47" value="" style="endArrow=classic;html=1;shadow=0;strokeWidth=2;fillColor=#F2CC8F;fontColor=#393C56;comic=1;strokeColor=#F19C99;" edge="1" parent="1">
          <mxGeometry width="50" height="50" relative="1" as="geometry">
            <mxPoint x="390" y="360" as="sourcePoint" />
            <mxPoint x="400" y="440" as="targetPoint" />
          </mxGeometry>
        </mxCell>
        <mxCell id="1k8U-JNSFX3r7dmcErmA-48" value="&lt;span style=&quot;font-size: 9px&quot;&gt;判断锁值&lt;br&gt;是否相等&lt;br&gt;&lt;/span&gt;" style="rounded=1;whiteSpace=wrap;html=1;shadow=0;labelBackgroundColor=none;fontSize=10;align=center;comic=1;strokeColor=#E07A5F;fontColor=#393C56;fillColor=#F19C99;" vertex="1" parent="1">
          <mxGeometry x="370" y="450" width="70" height="30" as="geometry" />
        </mxCell>
        <mxCell id="1k8U-JNSFX3r7dmcErmA-49" value="&lt;span style=&quot;font-size: 9px&quot;&gt;set lock_order 45Uo PX 10000 NX&lt;br&gt;&lt;/span&gt;" style="rounded=1;whiteSpace=wrap;html=1;shadow=0;labelBackgroundColor=none;fontSize=10;align=center;comic=1;strokeColor=#E07A5F;fontColor=#393C56;fillColor=#67AB9F;" vertex="1" parent="1">
          <mxGeometry x="420" y="390" width="90" height="30" as="geometry" />
        </mxCell>
        <mxCell id="1k8U-JNSFX3r7dmcErmA-50" value="" style="endArrow=none;html=1;shadow=0;strokeWidth=2;fillColor=#F2CC8F;fontColor=#393C56;comic=1;entryX=0;entryY=0;entryDx=49.50000000000001;entryDy=40;entryPerimeter=0;strokeColor=#67AB9F;" edge="1" parent="1" target="1k8U-JNSFX3r7dmcErmA-56">
          <mxGeometry width="50" height="50" relative="1" as="geometry">
            <mxPoint x="470" y="360" as="sourcePoint" />
            <mxPoint x="660" y="360" as="targetPoint" />
          </mxGeometry>
        </mxCell>
        <mxCell id="1k8U-JNSFX3r7dmcErmA-52" value="" style="endArrow=classic;html=1;shadow=0;strokeWidth=2;fillColor=#F2CC8F;fontColor=#393C56;strokeColor=#F19C99;comic=1;" edge="1" parent="1">
          <mxGeometry width="50" height="50" relative="1" as="geometry">
            <mxPoint x="520" y="440" as="sourcePoint" />
            <mxPoint x="590" y="360" as="targetPoint" />
          </mxGeometry>
        </mxCell>
        <mxCell id="1k8U-JNSFX3r7dmcErmA-54" value="&lt;span style=&quot;font-size: 9px&quot;&gt;del lock_order&lt;br&gt;&lt;/span&gt;" style="rounded=1;whiteSpace=wrap;html=1;shadow=0;labelBackgroundColor=none;fontSize=10;align=center;comic=1;fontColor=#393C56;strokeColor=#F19C99;fillColor=#F19C99;" vertex="1" parent="1">
          <mxGeometry x="540" y="395" width="70" height="15" as="geometry" />
        </mxCell>
        <mxCell id="1k8U-JNSFX3r7dmcErmA-55" value="&lt;span style=&quot;font-size: 9px&quot;&gt;值相等&lt;br&gt;释放锁&lt;br&gt;&lt;/span&gt;" style="rounded=1;whiteSpace=wrap;html=1;shadow=0;labelBackgroundColor=none;fontSize=10;align=center;comic=1;strokeColor=#E07A5F;fontColor=#393C56;fillColor=#F19C99;" vertex="1" parent="1">
          <mxGeometry x="470" y="450" width="70" height="30" as="geometry" />
        </mxCell>
        <mxCell id="1k8U-JNSFX3r7dmcErmA-56" value="&lt;span style=&quot;font-size: 9px&quot;&gt;客户端A 把 客户端B 的锁给释放了&lt;/span&gt;" style="shape=callout;whiteSpace=wrap;html=1;perimeter=calloutPerimeter;rounded=1;sketch=0;fontColor=#393C56;position2=0.55;comic=1;noLabel=0;base=20;size=10;position=0.44;arcSize=13;strokeColor=#F19C99;fillColor=#F19C99;" vertex="1" parent="1">
          <mxGeometry x="540" y="320" width="90" height="40" as="geometry" />
        </mxCell>
        <mxCell id="1k8U-JNSFX3r7dmcErmA-58" value="1" style="ellipse;whiteSpace=wrap;html=1;aspect=fixed;rounded=1;comic=1;sketch=0;fontSize=9;align=center;fillColor=#66B2FF;" vertex="1" parent="1">
          <mxGeometry x="200" y="370" width="14" height="14" as="geometry" />
        </mxCell>
        <mxCell id="1k8U-JNSFX3r7dmcErmA-61" value="6" style="ellipse;whiteSpace=wrap;html=1;aspect=fixed;rounded=1;comic=1;sketch=0;fontSize=9;align=center;fillColor=#66B2FF;" vertex="1" parent="1">
          <mxGeometry x="540" y="376" width="14" height="14" as="geometry" />
        </mxCell>
        <mxCell id="1k8U-JNSFX3r7dmcErmA-62" value="5" style="ellipse;whiteSpace=wrap;html=1;aspect=fixed;rounded=1;comic=1;sketch=0;fontSize=9;align=center;fillColor=#66B2FF;" vertex="1" parent="1">
          <mxGeometry x="460" y="336" width="14" height="14" as="geometry" />
        </mxCell>
        <mxCell id="1k8U-JNSFX3r7dmcErmA-63" value="4" style="ellipse;whiteSpace=wrap;html=1;aspect=fixed;rounded=1;comic=1;sketch=0;fontSize=9;align=center;fillColor=#66B2FF;" vertex="1" parent="1">
          <mxGeometry x="406" y="370" width="14" height="14" as="geometry" />
        </mxCell>
        <mxCell id="1k8U-JNSFX3r7dmcErmA-64" value="3" style="ellipse;whiteSpace=wrap;html=1;aspect=fixed;rounded=1;comic=1;sketch=0;fontSize=9;align=center;fillColor=#66B2FF;" vertex="1" parent="1">
          <mxGeometry x="406" y="420" width="14" height="14" as="geometry" />
        </mxCell>
        <mxCell id="1k8U-JNSFX3r7dmcErmA-65" value="2" style="ellipse;whiteSpace=wrap;html=1;aspect=fixed;rounded=1;comic=1;sketch=0;fontSize=9;align=center;fillColor=#66B2FF;" vertex="1" parent="1">
          <mxGeometry x="300" y="446" width="14" height="14" as="geometry" />
        </mxCell>
      </root>
    </mxGraphModel>
  </diagram>
</mxfile>
